<?xml version="1.0" encoding="UTF-8" standalone="no"?>
<svg width="24" height="24" viewBox="0 0 24 24" fill="none" xmlns="http://www.w3.org/2000/svg">
  <path d="M12 2C8.13 2 5 5.13 5 9c0 2.38 1.19 4.47 3 5.74V17c0 0.55 0.45 1 1 1h6c0.55 0 1-0.45 1-1v-2.26c1.81-1.27 3-3.36 3-5.74 0-3.87-3.13-7-7-7zm2 14h-4v-1h4v1zm0-3h-4c-1.1 0-2-0.9-2-2s0.9-2 2-2h.5c0.28 0 0.5 0.22 0.5 0.5S12.78 10 12.5 10h-1c-0.55 0-1 0.45-1 1s0.45 1 1 1h3c0.82 0 1.5-0.67 1.5-1.5v-1c0-0.83-0.67-1.5-1.5-1.5h-3c-0.28 0-0.5-0.22-0.5-0.5s0.22-0.5 0.5-0.5h1c0.83 0 1.5-0.67 1.5-1.5S13.33 4 12.5 4h-1C10.67 4 10 4.67 10 5.5S10.67 7 11.5 7h1c0.28 0 0.5 0.22 0.5 0.5S12.78 8 12.5 8h-3C8.01 8 7 9.01 7 10.5c0 1.99 1.51 3.5 3.5 3.5h3.5V14z" fill="#350748"/>
</svg>