<?xml version="1.0" encoding="UTF-8" standalone="no"?>
<svg width="24" height="24" viewBox="0 0 24 24" fill="none" xmlns="http://www.w3.org/2000/svg">
  <path d="M12 3C7.58 3 4 4.79 4 7v10c0 2.21 3.58 4 8 4s8-1.79 8-4V7c0-2.21-3.58-4-8-4zm0 2c3.87 0 6 1.37 6 2s-2.13 2-6 2-6-1.37-6-2 2.13-2 6-2zM6 11.45C7.41 12.24 9.63 12.5 12 12.5s4.59-0.26 6-1.05V14c0 0.63-2.13 2-6 2s-6-1.37-6-2v-2.55zM6 16.45C7.41 17.24 9.63 17.5 12 17.5s4.59-0.26 6-1.05V19c0 0.63-2.13 2-6 2s-6-1.37-6-2v-2.55z" fill="#350748"/>
</svg>